<?xml version="1.0" encoding="UTF-8"?>
<svg xmlns="http://www.w3.org/2000/svg" viewBox="0 0 64 64" width="512" height="512"><g id="bag-drinking-delivery-cup-coffee"><path d="M61,42H46.51L44,16.9a1.015,1.015,0,0,0-1-.9H37V14a12,12,0,0,0-24,0v2H7a1.015,1.015,0,0,0-1,.9l-4,40a1.036,1.036,0,0,0,.26.77A1,1,0,0,0,3,58H30.1A5.017,5.017,0,0,0,35,62H55a5,5,0,0,0,5-5V48h1a1,1,0,0,0,1-1V43A1,1,0,0,0,61,42ZM15,14a10,10,0,0,1,20,0v2H15ZM30,56H4.1L7.9,18H13v4H12v2h4V22H15V18H35v4H34v2h4V22H37V18h5.1l2.4,24H29a1,1,0,0,0-1,1v4a1,1,0,0,0,1,1h1Zm28,1a3.009,3.009,0,0,1-3,3H35a3.009,3.009,0,0,1-3-3V48H58Zm2-11H30V44H60Z"/><path d="M34,37V36a8,8,0,0,0-7-7.93V26H25v2.07A8,8,0,0,0,18,36v1H16v2H36V37Zm-2,0H20V36a6,6,0,0,1,12,0Z"/><path d="M50,39h2a4.527,4.527,0,0,0-1.219-3.125,2.641,2.641,0,0,1,0-3.75A4.527,4.527,0,0,0,52,29H50a2.583,2.583,0,0,1-.781,1.875,4.615,4.615,0,0,0,0,6.25A2.583,2.583,0,0,1,50,39Z"/><path d="M39,39h2a4.527,4.527,0,0,0-1.219-3.125,2.641,2.641,0,0,1,0-3.75A4.527,4.527,0,0,0,41,29H39a2.583,2.583,0,0,1-.781,1.875,4.615,4.615,0,0,0,0,6.25A2.583,2.583,0,0,1,39,39Z"/></g></svg>
