<?xml version="1.0" encoding="UTF-8"?>
<svg xmlns="http://www.w3.org/2000/svg" viewBox="0 0 64 64" width="512" height="512"><g id="box-delicious-spoon-fork-rice"><path d="M14,16v9a5.017,5.017,0,0,1-4,4.9V16H8V29.9A5.017,5.017,0,0,1,4,25V16H2v9a7,7,0,0,0,4,6.31V40a1,1,0,0,0-1,1V61a1,1,0,0,0,1,1h6a1,1,0,0,0,1-1V41a1,1,0,0,0-1-1V31.31A7,7,0,0,0,16,25V16ZM8,31.92a6.29,6.29,0,0,0,2,0V40H8ZM11,60H7V42h4Z"/><path d="M62,23c0-4.96-3.14-9-7-9s-7,4.04-7,9a9.463,9.463,0,0,0,4,8.12V40a1,1,0,0,0-1,1V61a1,1,0,0,0,1,1h6a1,1,0,0,0,1-1V41a1,1,0,0,0-1-1V31.12A9.463,9.463,0,0,0,62,23ZM57,60H53V42h4ZM54,40V31.9a5.05,5.05,0,0,0,2,0V40Zm1-10c-2.76,0-5-3.14-5-7s2.24-7,5-7,5,3.14,5,7S57.76,30,55,30Z"/><path d="M48,42H42.97A4.924,4.924,0,0,0,44,39V31h1a1,1,0,0,0,1-1V26a1,1,0,0,0-1-1H19a1,1,0,0,0-1,1v4a1,1,0,0,0,1,1h1v8a4.924,4.924,0,0,0,1.03,3H16a1,1,0,0,0-1,1v4a1,1,0,0,0,1,1h1v9a5,5,0,0,0,5,5H42a5,5,0,0,0,5-5V48h1a1,1,0,0,0,1-1V43A1,1,0,0,0,48,42ZM20,29V27H44v2Zm22,2v8a3.009,3.009,0,0,1-3,3H25a3.009,3.009,0,0,1-3-3V31Zm3,26a3.009,3.009,0,0,1-3,3H22a3.009,3.009,0,0,1-3-3V48H45Zm2-11H17V44H47Z"/><path d="M22,16h2a2.267,2.267,0,0,1,.759-1.684,4.208,4.208,0,0,0,0-5.968,2.244,2.244,0,0,1,0-3.365A4.162,4.162,0,0,0,26,2H24a2.258,2.258,0,0,1-.759,1.681,4.207,4.207,0,0,0,0,5.967,2.248,2.248,0,0,1,0,3.368A4.163,4.163,0,0,0,22,16Z"/><path d="M30,16h2a2.267,2.267,0,0,1,.759-1.684,4.208,4.208,0,0,0,0-5.968,2.244,2.244,0,0,1,0-3.365A4.162,4.162,0,0,0,34,2H32a2.258,2.258,0,0,1-.759,1.681,4.207,4.207,0,0,0,0,5.967,2.248,2.248,0,0,1,0,3.368A4.163,4.163,0,0,0,30,16Z"/><path d="M38,16h2a2.267,2.267,0,0,1,.759-1.684,4.208,4.208,0,0,0,0-5.968,2.244,2.244,0,0,1,0-3.365A4.162,4.162,0,0,0,42,2H40a2.258,2.258,0,0,1-.759,1.681,4.207,4.207,0,0,0,0,5.967,2.248,2.248,0,0,1,0,3.368A4.163,4.163,0,0,0,38,16Z"/></g></svg>
