<svg height="512" viewBox="0 0 64 64" width="512" xmlns="http://www.w3.org/2000/svg"><g id="truck-food_delivery-mobile-food" data-name="truck-food delivery-mobile-food"><path d="m61 12h-38a1 1 0 0 0 -1 1v7h-12a.977.977 0 0 0 -.89.55l-7 14a1 1 0 0 0 -.11.45v20a1 1 0 0 0 1 1h5.08a6.991 6.991 0 0 0 13.84 0h20.16a6.991 6.991 0 0 0 13.84 0h5.08a1 1 0 0 0 1-1v-42a1 1 0 0 0 -1-1zm-46 48a5 5 0 1 1 5-5 5 5 0 0 1 -5 5zm7-6h-.08a6.991 6.991 0 0 0 -13.84 0h-4.08v-18h18zm0-20h-17.38l6-12h11.38zm27 26a5 5 0 1 1 5-5 5 5 0 0 1 -5 5zm11-6h-4.08a6.991 6.991 0 0 0 -13.84 0h-18.08v-8h36zm0-10h-36v-4h36zm0-6h-36v-24h36z"/><path d="m16 38h4v2h-4z"/><path d="m49 52a3 3 0 1 0 3 3 3 3 0 0 0 -3-3zm0 4a1 1 0 1 1 1-1 1 1 0 0 1 -1 1z"/><path d="m15 52a3 3 0 1 0 3 3 3 3 0 0 0 -3-3zm0 4a1 1 0 1 1 1-1 1 1 0 0 1 -1 1z"/><path d="m53.96 30.17a11 11 0 0 0 -7.96-9.74v-1.43a3 3 0 0 0 -3-3 3.009 3.009 0 0 0 -3 3v1.43a11 11 0 0 0 -7.96 9.74 2.993 2.993 0 0 0 .96 5.83h20a2.993 2.993 0 0 0 .96-5.83zm-11.96-11.17a1 1 0 0 1 1-1 .949.949 0 0 1 .71.31.928.928 0 0 1 .29.69v1.05c-.33-.03-.66-.05-1-.05s-.67.02-1 .05zm1 3a9.008 9.008 0 0 1 8.94 8h-17.88a9.008 9.008 0 0 1 8.94-8zm10 12h-20a1 1 0 0 1 0-2h20a1 1 0 0 1 0 2z"/></g></svg>