<?xml version="1.0" encoding="UTF-8"?>
<svg xmlns="http://www.w3.org/2000/svg" width="512" height="512" viewBox="0 0 512 512"><path d="M448,385.01V328a8,8,0,0,0-8-8H264V280H384a120,120,0,0,0,0-240,120.523,120.523,0,0,0-48.86,10.37A127.541,127.541,0,0,0,240,8C173.62,8,118.73,58.98,112.58,123.84A80.021,80.021,0,1,0,88,280H248v40H72a8,8,0,0,0-8,8v57.01a32,32,0,1,0,16,0V336H248V440a8.258,8.258,0,0,0,.07,1,32,32,0,1,0,15.86,0,8.258,8.258,0,0,0,.07-1V336H432v49.01a32,32,0,1,0,16,0ZM88,416a16,16,0,1,1-16-16A16.021,16.021,0,0,1,88,416Zm184,56a16,16,0,1,1-16-16A16.021,16.021,0,0,1,272,472ZM88,264a64,64,0,1,1,28.44-121.34,8,8,0,0,0,11.57-7.13C128.25,74.03,178.49,24,240,24a111.627,111.627,0,0,1,86.85,41.29,8,8,0,0,0,9.84,2.06A102.911,102.911,0,0,1,384,56a104,104,0,1,1,0,208ZM440,432a16,16,0,1,1,16-16A16.021,16.021,0,0,1,440,432Z"/></svg>
