<?xml version="1.0" encoding="UTF-8"?>
<svg xmlns="http://www.w3.org/2000/svg" width="512" height="512" viewBox="0 0 512 512"><path d="M475.54,177.95c-13.42-5.37-30.42-8.71-48.71-9.66A193.267,193.267,0,0,0,344,85.33V48c0-12.04-10.11-22.71-28.46-30.05C299.5,11.53,278.36,8,256,8s-43.5,3.53-59.54,9.95C178.11,25.29,168,35.96,168,48V85.33a193.031,193.031,0,0,0-82.68,82.7c-21.37.27-41.47,3.76-56.86,9.92C10.11,185.29,0,195.96,0,208v96c0,12.04,10.11,22.71,28.46,30.05,15.39,6.16,35.49,9.65,56.86,9.92A193.031,193.031,0,0,0,168,426.67V464c0,12.04,10.11,22.71,28.46,30.05C212.5,500.47,233.64,504,256,504s43.5-3.53,59.54-9.95C333.89,486.71,344,476.04,344,464V426.67a193.267,193.267,0,0,0,82.83-82.96c18.29-.95,35.29-4.29,48.71-9.66C493.89,326.71,504,316.04,504,304V208C504,195.96,493.89,185.29,475.54,177.95ZM256,24c43.95,0,72,14.21,72,24s-28.05,24-72,24-72-14.21-72-24S212.05,24,256,24ZM184,71.78a74.592,74.592,0,0,0,12.46,6.27C212.49,84.47,233.64,88,256,88s43.51-3.53,59.54-9.95A74.592,74.592,0,0,0,328,71.78V96c0,9.79-28.05,24-72,24s-72-14.21-72-24Zm0,48a74.592,74.592,0,0,0,12.46,6.27C212.49,132.47,233.64,136,256,136s43.51-3.53,59.54-9.95A74.592,74.592,0,0,0,328,119.78V144c0,9.79-28.05,24-72,24s-72-14.21-72-24ZM88,184c43.95,0,72,14.21,72,24s-28.05,24-72,24-72-14.21-72-24S44.05,184,88,184ZM16,231.78a74.592,74.592,0,0,0,12.46,6.27C44.49,244.47,65.64,248,88,248s43.51-3.53,59.54-9.95A74.592,74.592,0,0,0,160,231.78V256c0,9.79-28.05,24-72,24s-72-14.21-72-24ZM16,304V279.78a74.592,74.592,0,0,0,12.46,6.27C44.49,292.47,65.64,296,88,296s43.51-3.53,59.54-9.95A74.592,74.592,0,0,0,160,279.78V304c0,9.79-28.05,24-72,24S16,313.79,16,304ZM328,464c0,9.79-28.05,24-72,24s-72-14.21-72-24V439.78a74.592,74.592,0,0,0,12.46,6.27C212.49,452.47,233.64,456,256,456s43.51-3.53,59.54-9.95A74.592,74.592,0,0,0,328,439.78Zm0-48c0,9.79-28.05,24-72,24s-72-14.21-72-24V391.78a74.592,74.592,0,0,0,12.46,6.27C212.49,404.47,233.64,408,256,408s43.51-3.53,59.54-9.95A74.592,74.592,0,0,0,328,391.78Zm-72-24c-43.95,0-72-14.21-72-24s28.05-24,72-24,72,14.21,72,24S299.95,392,256,392Zm88,16.44V368c0-12.04-10.11-22.71-28.46-30.05C299.5,331.53,278.36,328,256,328s-43.5,3.53-59.54,9.95C178.11,345.29,168,355.96,168,368v40.44a177.34,177.34,0,0,1-64.76-65.01c16.61-1.22,31.97-4.44,44.3-9.38C165.89,326.71,176,316.04,176,304V208c0-12.04-10.11-22.71-28.46-30.05-12.33-4.94-27.69-8.16-44.3-9.39a177.388,177.388,0,0,1,64.76-65V144c0,12.04,10.11,22.71,28.46,30.05C212.5,180.47,233.64,184,256,184s43.5-3.53,59.54-9.95C333.89,166.71,344,156.04,344,144V103.56a177.427,177.427,0,0,1,64.52,64.58c-19.56.7-37.83,4.11-52.06,9.81C338.11,185.29,328,195.96,328,208v96c0,12.04,10.11,22.71,28.46,30.05,14.23,5.7,32.5,9.11,52.06,9.81A177.427,177.427,0,0,1,344,408.44ZM488,304c0,9.79-28.05,24-72,24s-72-14.21-72-24V279.78a74.592,74.592,0,0,0,12.46,6.27C372.49,292.47,393.64,296,416,296s43.51-3.53,59.54-9.95A74.592,74.592,0,0,0,488,279.78Zm0-48c0,9.79-28.05,24-72,24s-72-14.21-72-24V231.78a74.592,74.592,0,0,0,12.46,6.27C372.49,244.47,393.64,248,416,248s43.51-3.53,59.54-9.95A74.592,74.592,0,0,0,488,231.78Zm-72-24c-43.95,0-72-14.21-72-24s28.05-24,72-24,72,14.21,72,24S459.95,232,416,232Z"/></svg>
