<?xml version="1.0" encoding="UTF-8"?>
<svg xmlns="http://www.w3.org/2000/svg" width="512" height="512" viewBox="0 0 512 512"><g><path d="M476,80H348.96a96.011,96.011,0,0,0-185.92,0H36A28.031,28.031,0,0,0,8,108V404a28.031,28.031,0,0,0,28,28H190.56l-5.34,32H152a8,8,0,0,0-8,8v16H112a8,8,0,0,0,0,16H400a8,8,0,0,0,0-16H368V472a8,8,0,0,0-8-8H326.78l-5.34-32H476a28.031,28.031,0,0,0,28-28V108A28.031,28.031,0,0,0,476,80ZM256,24a80.013,80.013,0,0,1,36.36,151.28A7.984,7.984,0,0,0,288,182.4V208h-8V128a8,8,0,0,0-16,0v80H248V128a8,8,0,0,0-16,0v80h-8V182.4a7.984,7.984,0,0,0-4.36-7.12A80.013,80.013,0,0,1,256,24ZM236,280a12.01,12.01,0,0,1-12-12V248h64v20a12.01,12.01,0,0,1-12,12Zm28,16a8,8,0,0,1-16,0Zm-56-64v-8h96v8ZM352,480v8H160v-8ZM201.44,464l5.34-32h98.44l5.34,32ZM488,404a12.01,12.01,0,0,1-12,12H36a12.01,12.01,0,0,1-12-12V384H488Zm0-36H24V108A12.01,12.01,0,0,1,36,96H160.34c-.22,2.64-.34,5.31-.34,8a95.6,95.6,0,0,0,48,83.15V208h-8a8,8,0,0,0-8,8v24a8,8,0,0,0,8,8h8v20a28.043,28.043,0,0,0,24,27.71V296a24,24,0,0,0,48,0v-.29A28.043,28.043,0,0,0,304,268V248h8a8,8,0,0,0,8-8V216a8,8,0,0,0-8-8h-8V187.15A95.6,95.6,0,0,0,352,104c0-2.69-.12-5.36-.34-8H476a12.01,12.01,0,0,1,12,12Z"/><path d="M96,392H48a8,8,0,0,0,0,16H96a8,8,0,0,0,0-16Z"/><path d="M128,392h-8a8,8,0,0,0,0,16h8a8,8,0,0,0,0-16Z"/><path d="M224,112h64a8,8,0,0,0,0-16H224a8,8,0,0,0,0,16Z"/></g></svg>
