<?xml version="1.0" encoding="UTF-8"?>
<svg xmlns="http://www.w3.org/2000/svg" width="512" height="512" viewBox="0 0 512 512"><g><path d="M496,216H451.98a200.568,200.568,0,0,0-29.12-70.29l31.13-31.13a8,8,0,0,0,0-11.31L408.73,58.01a8,8,0,0,0-11.31,0L366.29,89.14A200.568,200.568,0,0,0,296,60.02V16a8,8,0,0,0-8-8H224a8,8,0,0,0-8,8V60.02a200.568,200.568,0,0,0-70.29,29.12L114.58,58.01a8,8,0,0,0-11.31,0L58.01,103.27a8,8,0,0,0,0,11.31l31.13,31.13A200.568,200.568,0,0,0,60.02,216H16a8,8,0,0,0-8,8v64a8,8,0,0,0,8,8H60.02a200.568,200.568,0,0,0,29.12,70.29L58.01,397.42a8,8,0,0,0,0,11.31l45.26,45.26a8,8,0,0,0,11.31,0l31.13-31.13A200.568,200.568,0,0,0,216,451.98V496a8,8,0,0,0,8,8h64a8,8,0,0,0,8-8V451.98a200.568,200.568,0,0,0,70.29-29.12l31.13,31.13a8,8,0,0,0,11.31,0l45.26-45.26a8,8,0,0,0,0-11.31l-31.13-31.13A200.568,200.568,0,0,0,451.98,296H496a8,8,0,0,0,8-8V224A8,8,0,0,0,496,216Zm-8,64H445.33a8,8,0,0,0-7.89,6.68,184.285,184.285,0,0,1-31.45,75.93,7.976,7.976,0,0,0,.86,10.29l30.17,30.18-33.94,33.94L372.9,406.85a7.976,7.976,0,0,0-10.29-.86,184.285,184.285,0,0,1-75.93,31.45,8,8,0,0,0-6.68,7.89V488H232V445.33a8,8,0,0,0-6.68-7.89,184.285,184.285,0,0,1-75.93-31.45,7.976,7.976,0,0,0-10.29.86l-30.18,30.17L74.98,403.08l30.17-30.18a7.976,7.976,0,0,0,.86-10.29,184.285,184.285,0,0,1-31.45-75.93A8,8,0,0,0,66.67,280H24V232H66.67a8,8,0,0,0,7.89-6.68,184.285,184.285,0,0,1,31.45-75.93,7.976,7.976,0,0,0-.86-10.29L74.98,108.92l33.94-33.94,30.18,30.17a7.976,7.976,0,0,0,10.29.86,184.285,184.285,0,0,1,75.93-31.45A8,8,0,0,0,232,66.67V24h48V66.67a8,8,0,0,0,6.68,7.89,184.285,184.285,0,0,1,75.93,31.45,7.976,7.976,0,0,0,10.29-.86l30.18-30.17,33.94,33.94L406.85,139.1a7.976,7.976,0,0,0-.86,10.29,184.285,184.285,0,0,1,31.45,75.93,8,8,0,0,0,7.89,6.68H488Z"/><path d="M256,104c-83.81,0-152,68.19-152,152s68.19,152,152,152,152-68.19,152-152S339.81,104,256,104Zm16,216v71.05a135.212,135.212,0,0,1-32,0V320a8.033,8.033,0,0,0-3.56-6.66L192,283.72V211.85l24-19.2v70.57a8.006,8.006,0,0,0,3.61,6.69l32,21a8,8,0,0,0,8.78,0l32-21a8.006,8.006,0,0,0,3.61-6.69V192.65l24,19.2v71.87l-44.44,29.62A8.033,8.033,0,0,0,272,320Zm16,68.19V324.28l44.44-29.62A8.033,8.033,0,0,0,336,288V208a8,8,0,0,0-3-6.25l-40-32A8,8,0,0,0,280,176v82.9l-24,15.75L232,258.9V176a8,8,0,0,0-13-6.25l-40,32a8,8,0,0,0-3,6.25v80a8.033,8.033,0,0,0,3.56,6.66L224,324.28v63.91C164.4,373.76,120,319.97,120,256c0-74.99,61.01-136,136-136s136,61.01,136,136C392,319.97,347.6,373.76,288,388.19Z"/></g></svg>
